<svg id="Layer_1" xmlns="http://www.w3.org/2000/svg" viewBox="0 0 238.84 341.33"><title>location</title><path d="M-446.35,111.4C-412.7,72-381.93,30.6-357.71-15.36c11-20.81,20.42-42.29,25.3-65.45,8.49-40.24-.54-76.11-27.82-107-17-19.3-38.55-31.25-63.63-36.89-4.9-1.1-10-1.13-14.81-2.63h-22c-2.26,1.62-5,1.27-7.52,1.74-42.56,7.93-72.76,31.86-90.31,71.15-11.34,25.38-12.17,51.92-5.28,78.8,5.41,21.16,14,41,24.14,60.26,24.24,46,55,87.39,88.66,126.78.65.76,1.89,1.24,1.65,2.6H-448C-448.24,112.64-447,112.16-446.35,111.4ZM-462.6-39.48c-2.81.06-3.24-.94-3.22-3.42.1-15,0-30,.1-45,0-2.34-.59-3-2.92-2.91-3.77.08-7.55.09-11.33.09s-7.55,0-11.33,0l-11.5,0c-3.83,0-7.66,0-11.49.06-2,0-2.68-.44-2.65-2.55q.16-14.49,0-29c0-2.28.74-2.71,2.82-2.7,15,.08,30,0,45,.12,2.86,0,3.45-.84,3.43-3.54-.13-14.88,0-29.77-.13-44.66,0-2.49.59-3.17,3.12-3.12q14.16.24,28.32,0c2.42,0,2.91.75,2.89,3-.1,15,0,30-.11,45,0,2.63.67,3.34,3.3,3.32,15-.13,30,0,45-.12,2.32,0,3,.56,2.94,2.92-.14,9.44-.17,18.89,0,28.33.06,2.66-.87,3-3.22,3-15-.1-30,0-45-.12-2.58,0-3.06.72-3,3.13.12,15,0,30,.12,45,0,2.44-.55,3.23-3.11,3.18C-443.94-39.66-453.27-39.68-462.6-39.48Z" transform="translate(568.17 227.33)" style="fill:#c8c9ce"/></svg>
