<svg id="Layer_1" data-name="Layer 1" xmlns="http://www.w3.org/2000/svg" viewBox="0 0 240 40"><title>Untitled-1</title><path d="M1.77,13.59H6.65c3.82,0,6.4,1.29,6.4,5s-2.57,5.27-6.3,5.27H4v6.77H1.77Zm4.71,8.54c3,0,4.41-1.08,4.41-3.51s-1.52-3.26-4.52-3.26H4v6.77Z" style="fill:#fff"/><path d="M15.72,27.62c0-2.79,2.55-4.08,8.16-4.71.05-2-.47-4.26-3.07-4.26a6.82,6.82,0,0,0-4,1.5l-.42-.62a8.06,8.06,0,0,1,4.53-1.61c2.91,0,3.79,2.18,3.79,4.68v8.06H24L23.88,29h-.05a7.59,7.59,0,0,1-4.52,2C17.38,31,15.72,30,15.72,27.62Zm8.16.49V23.59c-5.46.62-7.33,1.87-7.33,4a2.49,2.49,0,0,0,2.81,2.65C20.87,30.24,22.22,29.52,23.88,28.11Z" style="fill:#fff"/><path d="M29.29,11.89h.78V26.14h.05l6.45-7.91h.94l-4,4.89,4.73,7.54h-.88L33,23.74l-3,3.49v3.43h-.78Z" style="fill:#fff"/><path d="M41,11.89h.78V26.14h0l6.45-7.91h.94l-4,4.89L50,30.66H49.1l-4.31-6.92-3,3.49v3.43H41Z" style="fill:#fff"/><path d="M51.1,24.47c0-4.06,2.6-6.55,5.36-6.55s4.68,2,4.68,5.72a4.91,4.91,0,0,1,0,.83H51.94c0,3.33,1.92,5.77,4.88,5.77a5.65,5.65,0,0,0,3.44-1.14l.36.68A6.65,6.65,0,0,1,56.77,31C53.65,31,51.1,28.53,51.1,24.47Zm9.26-.73c0-3.43-1.56-5.09-3.9-5.09s-4.26,1.92-4.52,5.09Z" style="fill:#fff"/><path d="M64.62,27.38V19h-2v-.63l2-.1.11-3.64h.67v3.64h3.7V19H65.4v8.53c0,1.61.37,2.75,2.19,2.75a4.56,4.56,0,0,0,1.61-.41l.26.67a7.27,7.27,0,0,1-1.92.47C65.25,31,64.62,29.52,64.62,27.38Z" style="fill:#fff"/><path d="M76,28.44,77.31,27A6.69,6.69,0,0,0,82,29.06c2.24,0,3.57-1.11,3.57-2.77s-1.24-2.3-2.85-3l-2.45-1.08c-1.59-.68-3.45-1.89-3.45-4.4s2.27-4.53,5.37-4.53a7,7,0,0,1,5,2.12l-1.15,1.39a5.44,5.44,0,0,0-3.87-1.6c-1.92,0-3.18,1-3.18,2.49s1.48,2.26,2.82,2.83l2.43,1c2,.85,3.52,2,3.52,4.56C87.8,28.82,85.57,31,82,31A8.23,8.23,0,0,1,76,28.44Z" style="fill:#fff"/><path d="M90.21,24.47c0-4.06,2.6-6.55,5.35-6.55s4.68,2,4.68,5.72a4.91,4.91,0,0,1,0,.83H91c0,3.33,1.92,5.77,4.89,5.77a5.65,5.65,0,0,0,3.43-1.14l.36.68A6.59,6.59,0,0,1,95.88,31C92.76,31,90.21,28.53,90.21,24.47Zm9.25-.73c0-3.43-1.56-5.09-3.9-5.09S91.3,20.57,91,23.74Z" style="fill:#fff"/><path d="M103.73,18.23h.67l.11,2.34h0c.83-1.51,2-2.65,3.54-2.65a2.45,2.45,0,0,1,1.19.26l-.21.73A2.47,2.47,0,0,0,108,18.7c-1.14,0-2.49.88-3.48,3.33v8.63h-.78Z" style="fill:#fff"/><path d="M109.92,18.23h.88l3,8.06c.42,1.2.89,2.45,1.3,3.54h.11c.41-1.09.88-2.34,1.3-3.54l3-8.06h.83l-4.68,12.43h-.93Z" style="fill:#fff"/><path d="M122.6,14.17a.89.89,0,0,1,1.77,0,.89.89,0,1,1-1.77,0Zm.47,4.06h.78V30.66h-.78Z" style="fill:#fff"/><path d="M127.75,24.47c0-4.16,2.6-6.55,5.57-6.55A5.09,5.09,0,0,1,137,19.48l-.52.57a4.5,4.5,0,0,0-3.12-1.4c-2.66,0-4.74,2.39-4.74,5.82s1.88,5.77,4.74,5.77a5.12,5.12,0,0,0,3.48-1.5l.47.57a5.87,5.87,0,0,1-4,1.66C130.14,31,127.75,28.58,127.75,24.47Z" style="fill:#fff"/><path d="M138.72,24.47c0-4.06,2.6-6.55,5.36-6.55s4.68,2,4.68,5.72a4.91,4.91,0,0,1,0,.83h-9.15c0,3.33,1.92,5.77,4.88,5.77a5.65,5.65,0,0,0,3.44-1.14l.36.68A6.65,6.65,0,0,1,144.39,31C141.27,31,138.72,28.53,138.72,24.47Zm9.26-.73c0-3.43-1.56-5.09-3.9-5.09s-4.26,1.92-4.52,5.09Z" style="fill:#fff"/><path d="M156.11,29.37l9-13.94h-8.17V13.59h10.86v1.3l-9,13.93h9.08v1.84H156.11Z" style="fill:#fff"/><path d="M170.37,24.47c0-4.06,2.59-6.55,5.35-6.55s4.68,2,4.68,5.72a4.91,4.91,0,0,1-.05.83H171.2c0,3.33,1.92,5.77,4.88,5.77a5.65,5.65,0,0,0,3.44-1.14l.36.68A6.6,6.6,0,0,1,176,31C172.91,31,170.37,28.53,170.37,24.47Zm9.25-.73c0-3.43-1.56-5.09-3.9-5.09s-4.26,1.92-4.52,5.09Z" style="fill:#fff"/><path d="M182.79,24.47c0-4.06,2.6-6.55,5.36-6.55s4.68,2,4.68,5.72a4.91,4.91,0,0,1-.05.83h-9.15c0,3.33,1.92,5.77,4.88,5.77A5.65,5.65,0,0,0,192,29.1l.36.68A6.65,6.65,0,0,1,188.46,31C185.34,31,182.79,28.53,182.79,24.47Zm9.26-.73c0-3.43-1.56-5.09-3.9-5.09s-4.27,1.92-4.52,5.09Z" style="fill:#fff"/><path d="M196.31,29.31V11.89h.78V29.46c0,.52.21.78.52.78a2.07,2.07,0,0,0,.47,0l.16.68a2.45,2.45,0,0,1-.68.1C196.78,31,196.31,30.5,196.31,29.31Z" style="fill:#fff"/><path d="M201.36,27.62c0-2.79,2.55-4.08,8.16-4.71,0-2-.47-4.26-3.07-4.26a6.8,6.8,0,0,0-4,1.5l-.42-.62a8.05,8.05,0,0,1,4.52-1.61c2.92,0,3.8,2.18,3.8,4.68v8.06h-.67L209.52,29h-.05A7.59,7.59,0,0,1,205,31C203,31,201.36,30,201.36,27.62Zm8.16.49V23.59c-5.46.62-7.33,1.87-7.33,4A2.49,2.49,0,0,0,205,30.24C206.5,30.24,207.86,29.52,209.52,28.11Z" style="fill:#fff"/><path d="M214.93,18.23h.67l.11,2h0c1.3-1.3,2.6-2.29,4.32-2.29,2.55,0,3.74,1.51,3.74,4.73v8H223V22.75c0-2.75-.88-4.1-3-4.1-1.56,0-2.7.83-4.31,2.49v9.52h-.78Z" style="fill:#fff"/><path d="M227.51,24.47c0-4,2.55-6.55,5.57-6.55a5.93,5.93,0,0,1,3.84,1.56l0-2.34V11.89h.78V30.66H237L236.87,29h-.05a6,6,0,0,1-4.16,2C229.54,31,227.51,28.68,227.51,24.47Zm9.36,3.59v-7.7A5.52,5.52,0,0,0,233,18.65c-2.65,0-4.68,2.6-4.68,5.82,0,3.43,1.56,5.77,4.37,5.77C234.17,30.24,235.47,29.46,236.87,28.06Z" style="fill:#fff"/></svg>